<svg xmlns="http://www.w3.org/2000/svg" width="84.992" height="63" viewBox="0 0 84.992 63">
  <path id="Union_42" data-name="Union 42" d="M4981.111-2369.235h9.022a4.123,4.123,0,0,0,4.1,4.136,4.123,4.123,0,0,0,4.1-4.136v-6.4a18.1,18.1,0,0,1-9.276,2.549,8.031,8.031,0,0,1-8-8.064v-22.624l10.165-.006-1.353,17.048a4.193,4.193,0,0,0,4.159,4.542h.354a4.192,4.192,0,0,0,4.159-4.542l-1.353-17.048v-.009l10.165-.006v34.564A13.2,13.2,0,0,1,4994.235-2356,13.2,13.2,0,0,1,4981.111-2369.235Zm-8.161-2.426a5.291,5.291,0,0,1-3.85-1.675l-8.336-8.932V-2373l0,.006h-9.037v-40.926h9.037v15.079l7.6-8.173a5.283,5.283,0,0,1,3.85-1.678h.51a5.041,5.041,0,0,1,4.783,3.377,5.106,5.106,0,0,1-1.514,5.685l-.045.037-12.581,9.068,13.343,9.791.021.018a5.121,5.121,0,0,1,1.487,5.69,5.05,5.05,0,0,1-4.785,3.368Zm37.477-32.042,9.022.009v2.54a18.1,18.1,0,0,1,9.277-2.549v0a8.031,8.031,0,0,1,8,8.064v22.621l-10.165.006,1.353-17.048a4.193,4.193,0,0,0-4.159-4.542h-.354a4.192,4.192,0,0,0-4.159,4.542l1.353,17.048v.006l-10.165.006Zm-13.31-10.133a5.143,5.143,0,0,1,5.122-5.165,5.143,5.143,0,0,1,5.121,5.165,5.143,5.143,0,0,1-5.121,5.165A5.144,5.144,0,0,1,4997.117-2413.835Zm-16.053,0a5.143,5.143,0,0,1,5.121-5.165,5.143,5.143,0,0,1,5.122,5.165,5.143,5.143,0,0,1-5.122,5.165A5.144,5.144,0,0,1,4981.063-2413.835Z" transform="translate(-4951.73 2419)" fill="#eb252d"/>
</svg>
